<?xml version="1.0" encoding="UTF-8"?>
<svg width="389px" height="48px" viewBox="0 0 389 48" version="1.1" xmlns="http://www.w3.org/2000/svg" xmlns:xlink="http://www.w3.org/1999/xlink">
    <!-- Generator: Sketch 61.2 (89653) - https://sketch.com -->
    <title>logo</title>
    <desc>Created with Sketch.</desc>
    <g id="页面-1" stroke="none" stroke-width="1" fill="none" fill-rule="evenodd">
        <g id="桌面端-HD" transform="translate(-115.000000, -66.000000)" fill-rule="nonzero">
            <g id="logo" transform="translate(115.000000, 66.000000)">
                <g id="编组">
                    <g transform="translate(0.000000, 1.401460)">
                        <g transform="translate(40.879518, 0.000000)">
                            <g>
                                <ellipse id="椭圆形" fill="#4890CC" cx="8.45542169" cy="8.6540146" rx="7.9313253" ry="7.95328467"></ellipse>
                                <path d="M8.45542169,17.1328467 C3.77349398,17.1328467 -4.96523839e-15,13.3138686 -4.96523839e-15,8.6540146 C-4.96523839e-15,3.95912409 3.80843373,0.175182482 8.45542169,0.175182482 C13.1373494,0.175182482 16.9108434,3.99416058 16.9108434,8.6540146 C16.9108434,13.3138686 13.1024096,17.1328467 8.45542169,17.1328467 Z M8.45542169,1.19124088 C4.36746988,1.19124088 1.04819277,4.51970803 1.04819277,8.6189781 C1.04819277,12.7182482 4.36746988,16.0467153 8.45542169,16.0467153 C12.5433735,16.0467153 15.8626506,12.7182482 15.8626506,8.6189781 C15.8626506,4.55474453 12.5433735,1.19124088 8.45542169,1.19124088 Z" id="形状" fill="#231815"></path>
                            </g>
                            <g transform="translate(4.542169, 3.503650)">
                                <ellipse id="椭圆形" fill="#4890CC" cx="4.50722892" cy="4.51970803" rx="3.73855422" ry="3.74890511"></ellipse>
                                <path d="M4.50722892,8.79416058 C2.16626506,8.79416058 0.244578313,6.86715328 0.244578313,4.51970803 C0.244578313,2.17226277 2.16626506,0.245255474 4.50722892,0.245255474 C6.84819277,0.245255474 8.76987952,2.17226277 8.76987952,4.51970803 C8.80481928,6.90218978 6.88313253,8.79416058 4.50722892,8.79416058 Z M4.50722892,1.29635036 C2.7253012,1.29635036 1.29277108,2.73284672 1.29277108,4.51970803 C1.29277108,6.30656934 2.7253012,7.74306569 4.50722892,7.74306569 C6.28915663,7.74306569 7.72168675,6.30656934 7.72168675,4.51970803 C7.75662651,2.73284672 6.28915663,1.29635036 4.50722892,1.29635036 Z" id="形状" fill="#231815"></path>
                            </g>
                        </g>
                        <g>
                            <g>
                                <ellipse id="椭圆形" fill="#4890CC" cx="8.45542169" cy="8.6540146" rx="7.9313253" ry="7.95328467"></ellipse>
                                <path d="M8.45542169,17.1328467 C3.80843373,17.1328467 0,13.3138686 0,8.6540146 C0,3.95912409 3.80843373,0.140145985 8.45542169,0.140145985 C13.1373494,0.140145985 16.9108434,3.95912409 16.9108434,8.6189781 C16.9457831,13.3138686 13.1373494,17.1328467 8.45542169,17.1328467 Z M8.45542169,1.19124088 C4.36746988,1.19124088 1.04819277,4.55474453 1.04819277,8.6540146 C1.04819277,12.7532847 4.36746988,16.0817518 8.45542169,16.0817518 C12.5433735,16.0817518 15.8626506,12.7532847 15.8626506,8.6540146 C15.8975904,4.55474453 12.5783133,1.19124088 8.45542169,1.19124088 Z" id="形状" fill="#231815"></path>
                            </g>
                            <g transform="translate(3.493976, 3.503650)">
                                <ellipse id="椭圆形" fill="#4890CC" cx="4.36746988" cy="4.51970803" rx="3.73855422" ry="3.74890511"></ellipse>
                                <path d="M4.36746988,8.79416058 C2.02650602,8.79416058 0.104819277,6.86715328 0.104819277,4.51970803 C0.104819277,2.17226277 2.02650602,0.245255474 4.36746988,0.245255474 C6.70843373,0.245255474 8.63012048,2.17226277 8.63012048,4.51970803 C8.63012048,6.90218978 6.70843373,8.79416058 4.36746988,8.79416058 Z M4.36746988,1.29635036 C2.58554217,1.29635036 1.15301205,2.73284672 1.15301205,4.51970803 C1.15301205,6.30656934 2.58554217,7.74306569 4.36746988,7.74306569 C6.14939759,7.74306569 7.58192771,6.30656934 7.58192771,4.51970803 C7.58192771,2.73284672 6.14939759,1.29635036 4.36746988,1.29635036 Z" id="形状" fill="#231815"></path>
                            </g>
                        </g>
                    </g>
                    <g>
                        <path d="M57.2313253,24 C56.4975904,11.1416058 46.2253012,0.665693431 29,0.665693431 C28.9650602,0.665693431 28.9301205,0.665693431 28.8951807,0.665693431 C28.860241,0.665693431 28.8253012,0.665693431 28.7903614,0.665693431 C11.5650602,0.665693431 1.29277108,11.1416058 0.593975904,24 C-0.174698795,37.8394161 7.89638554,47.3344029 28.8253012,47.3344029 C28.860241,47.3344029 28.8951807,47.3344029 28.9301205,47.3344029 C28.9650602,47.3344029 29,47.3344029 29.0349398,47.3344029 C49.9289157,47.3693431 58,37.8394161 57.2313253,24 Z" id="路径" fill="#4890CC"></path>
                        <path d="M29,47.8948905 L28.8951807,47.8948905 L28.8253012,47.8948905 C17.8891566,47.8948905 9.95783133,45.3372263 5.17108434,40.2569343 C1.39759036,36.2627737 -0.314457831,30.7620438 0.0698795181,24 C0.454216867,17.3781022 3.31927711,11.3868613 8.17590361,7.14744526 C13.346988,2.55766423 20.4746988,0.140145985 28.7903614,0.140145985 L28.8951807,0.140145985 L28.9650602,0.140145985 C37.2807229,0.140145985 44.4084337,2.55766423 49.6144578,7.11240876 C54.4710843,11.3868613 57.3361446,17.3430657 57.7204819,23.9649635 C58.1048193,30.7620438 56.3927711,36.2277372 52.6192771,40.2218978 C47.8674699,45.3021898 39.9012048,47.8948905 29,47.8948905 Z M28.8253012,1.19124088 C10.5518072,1.19124088 1.74698795,12.6832117 1.08313253,24.0350365 C0.73373494,30.5167883 2.34096386,35.7372263 5.90481928,39.5211679 C10.4819277,44.3562044 18.1686747,46.8437956 28.7903614,46.8437956 L28.8951807,46.8437956 L28.9650602,46.8437956 C28.9650602,46.8437956 28.9650602,46.8437956 28.9650602,46.8437956 C39.6216867,46.8437956 47.3084337,44.3912409 51.8855422,39.5562044 C55.4493976,35.7722628 57.0566265,30.5518248 56.7072289,24.070073 L56.7072289,24.070073 C56.0433735,12.6832117 47.2385542,1.19124088 29,1.19124088 L28.8951807,1.19124088 L28.8253012,1.19124088 Z" id="形状" fill="#231815"></path>
                    </g>
                    <g transform="translate(23.409639, 19.620438)">
                        <path d="M1.3626506,13.4189781 L5.48554217,11.6671533 L9.4686747,13.4189781 L9.4686747,15.6262774 C9.4686747,15.6262774 9.74819277,17.1328467 7.54698795,17.1328467 C5.31084337,17.1328467 2.62048193,17.1328467 2.62048193,17.1328467 C2.62048193,17.1328467 1.39759036,17.0978102 1.39759036,15.4510949 L1.39759036,13.4189781 L1.3626506,13.4189781 Z" id="路径" fill="#FFFFFF"></path>
                        <path d="M5.9746988,11.2116788 L5.9746988,8.96934307 L10.726506,9.00437956 C10.726506,9.00437956 10.3421687,0.280291971 5.55542169,0.105109489 L5.55542169,0.105109489 C5.52048193,0.105109489 5.52048193,0.105109489 5.48554217,0.105109489 C5.45060241,0.105109489 5.45060241,0.105109489 5.41566265,0.105109489 L5.41566265,0.105109489 C0.628915663,0.245255474 0.104819277,8.93430657 0.104819277,8.93430657 L4.85662651,8.96934307 L4.85662651,11.2116788 C4.15783133,11.7722628 0.104819277,14.3649635 0.838554217,14.4 L0.838554217,15.8364964 C0.838554217,16.8175182 1.64216867,17.6233577 2.62048193,17.6233577 L8.17590361,17.6583942 C8.17590361,17.6583942 8.17590361,17.6583942 8.17590361,17.6583942 C9.15421687,17.6583942 9.95783133,16.8525547 9.95783133,15.8715328 L9.95783133,14.4350365 C10.6566265,14.4350365 6.63855422,11.7722628 5.9746988,11.2116788 Z M8.83975904,15.8715328 C8.83975904,16.2569343 8.5253012,16.5372263 8.17590361,16.5372263 L2.62048193,16.5021898 C2.23614458,16.5021898 1.95662651,16.1868613 1.95662651,15.8364964 L1.95662651,13.8043796 C3.14457831,13.5941606 4.19277108,12.5430657 4.85662651,12.0875912 L4.82168675,15.4861314 C4.82168675,15.8014599 5.06626506,16.0467153 5.38072289,16.0467153 C5.38072289,16.0467153 5.38072289,16.0467153 5.38072289,16.0467153 C5.69518072,16.0467153 5.93975904,15.8014599 5.93975904,15.4861314 L5.9746988,12.0875912 C6.67349398,12.5430657 7.68674699,13.6291971 8.8746988,13.8394161 L8.83975904,15.8715328 Z" id="形状" fill="#231815"></path>
                    </g>
                    <path d="M36.0578313,33.7751825 C35.9879518,33.4948905 35.7084337,33.3547445 35.4289157,33.4248175 C35.3939759,33.4248175 33.2975904,33.950365 29.2445783,30.5518248 C29.2445783,30.5518248 29.2445783,30.5518248 29.2445783,30.5518248 C29.2445783,30.5518248 29.2096386,30.5167883 29.2096386,30.5167883 C29.2096386,30.5167883 29.1746988,30.4817518 29.1746988,30.4817518 C29.1746988,30.4817518 29.139759,30.4817518 29.139759,30.4817518 C29.139759,30.4817518 29.1048193,30.4817518 29.0698795,30.4467153 C29.0698795,30.4467153 29.0349398,30.4467153 29.0349398,30.4467153 C29,30.4467153 29,30.4467153 28.9650602,30.4467153 C28.9650602,30.4467153 28.9301205,30.4467153 28.9301205,30.4467153 C28.8951807,30.4467153 28.8951807,30.4467153 28.860241,30.4467153 C28.860241,30.4467153 28.8253012,30.4467153 28.8253012,30.4467153 C28.7903614,30.4467153 28.7903614,30.4467153 28.7554217,30.4467153 C28.7554217,30.4467153 28.7204819,30.4467153 28.7204819,30.4467153 C28.6855422,30.4467153 28.6855422,30.4467153 28.6506024,30.4817518 C28.6506024,30.4817518 28.6156627,30.4817518 28.6156627,30.5167883 C28.5807229,30.5167883 28.5807229,30.5518248 28.5457831,30.5518248 C28.5457831,30.5518248 28.5457831,30.5518248 28.5457831,30.5518248 C24.5277108,33.9153285 22.4313253,33.4248175 22.3614458,33.4248175 C22.0819277,33.3547445 21.8024096,33.4948905 21.7325301,33.7751825 C21.6626506,34.0554745 21.8024096,34.3357664 22.0819277,34.4408759 C22.1518072,34.4759124 22.3963855,34.5109489 22.7807229,34.5109489 C23.7939759,34.5109489 25.8204819,34.0905109 28.8951807,31.6379562 C31.9698795,34.0905109 33.9963855,34.5109489 35.0096386,34.5109489 C35.3939759,34.5109489 35.6385542,34.4408759 35.7084337,34.4408759 C35.9879518,34.3007299 36.1277108,34.020438 36.0578313,33.7751825 Z" id="路径" fill="#231815"></path>
                    <g transform="translate(9.084337, 11.912409)">
                        <g>
                            <path d="M8.1060241,15.7313869 C12.1590361,15.7313869 15.4433735,12.4379562 15.4433735,8.37372263 L0.768674699,8.37372263 C0.768674699,12.4379562 4.05301205,15.7313869 8.1060241,15.7313869 Z" id="路径" fill="#FFFFFD"></path>
                            <ellipse id="椭圆形" fill="#231815" cx="8.1060241" cy="8.33868613" rx="1.78192771" ry="1.78686131"></ellipse>
                            <path d="M8.1060241,0.981021898 C4.05301205,0.981021898 0.768674699,4.27445255 0.768674699,8.33868613 L15.4783133,8.33868613 C15.4433735,4.27445255 12.1590361,0.981021898 8.1060241,0.981021898 Z" id="路径" fill="#4890CC"></path>
                            <rect id="矩形" fill="#231815" x="0.524096386" y="7.88321168" width="15.1638554" height="1"></rect>
                            <path d="M8.1060241,16.4321168 C3.6686747,16.4321168 0.034939759,12.8233577 0.034939759,8.33868613 C0.034939759,3.8540146 3.63373494,0.245255474 8.1060241,0.245255474 C12.5783133,0.245255474 16.1771084,3.8540146 16.1771084,8.33868613 C16.1771084,12.8233577 12.5433735,16.4321168 8.1060241,16.4321168 Z M8.1060241,1.22627737 C4.19277108,1.22627737 0.978313253,4.41459854 0.978313253,8.37372263 C0.978313253,12.2978102 4.15783133,15.5211679 8.1060241,15.5211679 C12.0542169,15.5211679 15.2337349,12.3328467 15.2337349,8.37372263 C15.1987952,4.41459854 12.0192771,1.22627737 8.1060241,1.22627737 Z" id="形状" fill="#231815"></path>
                        </g>
                        <g transform="translate(23.409639, 0.000000)">
                            <path d="M8.1060241,15.7313869 C12.1590361,15.7313869 15.4433735,12.4379562 15.4433735,8.37372263 L0.768674699,8.37372263 C0.768674699,12.4379562 4.05301205,15.7313869 8.1060241,15.7313869 Z" id="路径" fill="#FFFFFD"></path>
                            <ellipse id="椭圆形" fill="#231815" cx="8.1060241" cy="8.33868613" rx="1.78192771" ry="1.78686131"></ellipse>
                            <path d="M8.1060241,0.981021898 C4.05301205,0.981021898 0.768674699,4.27445255 0.768674699,8.33868613 L15.4783133,8.33868613 C15.4433735,4.27445255 12.1590361,0.981021898 8.1060241,0.981021898 Z" id="路径" fill="#4890CC"></path>
                            <rect id="矩形" fill="#231815" x="0.524096386" y="7.88321168" width="15.1638554" height="1"></rect>
                            <path d="M8.1060241,16.4321168 C3.6686747,16.4321168 0.034939759,12.8233577 0.034939759,8.33868613 C0.034939759,3.8540146 3.63373494,0.245255474 8.1060241,0.245255474 C12.5783133,0.245255474 16.1771084,3.8540146 16.1771084,8.33868613 C16.1771084,12.8233577 12.5433735,16.4321168 8.1060241,16.4321168 Z M8.1060241,1.22627737 C4.19277108,1.22627737 0.978313253,4.41459854 0.978313253,8.37372263 C0.978313253,12.2978102 4.15783133,15.5211679 8.1060241,15.5211679 C12.0542169,15.5211679 15.2337349,12.3328467 15.2337349,8.37372263 C15.2337349,4.41459854 12.0192771,1.22627737 8.1060241,1.22627737 Z" id="形状" fill="#231815"></path>
                        </g>
                    </g>
                </g>
                <path d="M116.782158,14.104712 L116.782158,33.965096 L96.8205814,33.965096 L96.8205814,14.104712 L116.782158,14.104712 Z M112.291681,18.5724258 L101.346141,18.5724258 L101.346141,29.4624782 L112.291681,29.4624782 L112.291681,18.5724258 Z M148.987304,18.5724258 L148.987304,21.7835951 L159.30137,21.7835951 L159.30137,26.2862129 L148.987304,26.2862129 L148.987304,33.965096 L144.496826,33.965096 L144.496826,14.104712 L164.458403,14.104712 L164.458403,18.6073298 L148.987304,18.6073298 L148.987304,18.5724258 Z M136.112262,18.5724258 L125.166722,18.5724258 L125.166722,33.965096 L120.641163,33.965096 L120.641163,14.104712 L140.60274,14.104712 L140.60274,33.965096 L136.07718,33.965096 L136.07718,18.5724258 L136.112262,18.5724258 Z M168.317407,33.965096 L168.317407,14.104712 L172.807885,14.104712 L172.807885,29.4973822 L183.753425,29.4973822 L183.753425,24.3664921 L188.243902,24.3664921 L188.243902,33.965096 L168.317407,33.965096 Z M192.137989,33.965096 L192.137989,14.104712 L196.663548,14.104712 L196.663548,29.4973822 L207.609088,29.4973822 L207.609088,14.104712 L212.134648,14.104712 L212.134648,33.965096 L192.137989,33.965096 Z M235.920147,18.5724258 L230.412295,24.08726 L235.77982,29.4624782 L235.920147,29.4624782 L235.920147,33.965096 L231.394587,33.965096 L231.394587,32.5340314 L225.921818,27.0890052 L220.449048,32.5340314 L220.449048,33.965096 L215.923488,33.965096 L215.923488,29.4624782 L216.063816,29.4624782 L221.43134,24.1570681 L215.818243,18.5724258 L215.95857,18.4328098 L215.95857,14.104712 L220.48413,14.104712 L220.48413,15.9895288 L225.079853,20.5619546 L225.114935,20.5270506 L225.956899,21.3647469 L226.798864,20.5270506 L226.833946,20.5619546 L231.464751,15.9197208 L231.464751,14.1396161 L235.990311,14.1396161 L235.920147,18.5724258 L235.920147,18.5724258 L235.920147,18.5724258 Z M92.961577,29.4624782 L92.961577,33.965096 L73,33.965096 L73,14.104712 L92.961577,14.104712 L92.961577,18.6073298 L77.4904778,18.6073298 L77.4904778,29.4973822 L92.961577,29.4973822 L92.961577,29.4624782 Z M254.057467,29.008726 L268.932175,29.008726 L268.932175,14.1396161 L249.075844,14.1396161 L249.075844,33.965096 L254.057467,33.965096 L254.057467,29.008726 Z M263.985633,24.08726 L254.057467,24.08726 L254.057467,19.095986 L263.985633,19.095986 L263.985633,24.08726 L263.985633,24.08726 Z M272.931507,14.1745201 L272.931507,33.930192 L292.787838,33.930192 L292.787838,14.1745201 L272.931507,14.1745201 L272.931507,14.1745201 Z M287.806215,28.973822 L277.878049,28.973822 L277.878049,19.095986 L287.806215,19.095986 L287.806215,28.973822 Z M312.188106,26.565445 L316.503174,34 L310.854995,33.965096 L306.575008,26.565445 L301.768794,26.565445 L301.768794,33.965096 L296.857334,33.965096 L296.857334,14 L316.503174,14 L316.503174,26.565445 L312.188106,26.565445 L312.188106,26.565445 Z M311.591714,18.886562 L301.768794,18.886562 L301.768794,21.6788831 L311.591714,21.6788831 L311.591714,18.886562 Z M332.991647,19.061082 L332.991647,33.930192 L328.080187,33.930192 L328.080187,19.061082 L320.712997,19.061082 L320.712997,14.1745201 L340.358837,14.1745201 L340.358837,19.061082 L332.991647,19.061082 L332.991647,19.061082 Z M373.125292,14.1745201 L368.143669,14.1745201 L368.143669,33.930192 L388,33.930192 L388,28.973822 L373.125292,28.973822 L373.125292,14.1745201 L373.125292,14.1745201 Z M359.443368,14.6282723 L364.565319,33.965096 L359.513532,33.895288 L358.215503,28.7993019 L350.497494,28.7993019 L349.199465,33.895288 L344.217842,33.965096 L349.129302,14.069808 L349.585366,14.1396161 L358.846976,14.1396161 L359.30304,14.069808 L359.338122,14.1396161 L359.443368,14.1396161 L359.443368,14.6282723 L359.443368,14.6282723 Z M351.760441,23.91274 L356.952556,23.91274 L355.689609,19.026178 L353.023388,19.026178 L351.760441,23.91274 Z" id="PORTAL" stroke="#FFFFFF" stroke-width="1.5" fill="#000000"></path>
            </g>
        </g>
    </g>
</svg>