<?xml version="1.0" encoding="UTF-8"?>
<svg width="16px" height="13px" viewBox="0 0 16 13" version="1.1" xmlns="http://www.w3.org/2000/svg" xmlns:xlink="http://www.w3.org/1999/xlink">
    <!-- Generator: Sketch 61.2 (89653) - https://sketch.com -->
    <title>新手引导</title>
    <desc>Created with Sketch.</desc>
    <g id="页面-1" stroke="none" stroke-width="1" fill="none" fill-rule="evenodd">
        <g id="Portal-Landing" transform="translate(-361.000000, -687.000000)" fill="#FFFFFF" fill-rule="nonzero">
            <g id="新手引导link" transform="translate(185.000000, 681.000000)">
                <g id="新手引导" transform="translate(176.000000, 6.000000)">
                    <path d="M15.4759176,0.892261307 C14.4059193,0.300772471 13.1999173,-4.79993465e-07 11.8919192,-4.79993465e-07 L11.8919193,-4.79993465e-07 C10.7231683,0.00743404091 9.56882872,0.236549962 8.50192878,0.672851275 L8.50192878,9.50586505 L8.50192878,9.50586577 C8.49972762,9.7576008 8.27529543,9.96032458 7.99992835,9.95930958 L7.99992837,9.95930958 C7.72456129,9.9603246 7.50012932,9.7576008 7.49792931,9.50586577 L7.49792931,0.672851987 L7.49792963,0.672852117 C6.4310461,0.236499554 5.27669015,0.00738077107 4.10793913,-4.79993465e-07 C2.79993969,-4.79993465e-07 1.59394446,0.300772064 0.523940722,0.892260899 L0.523940641,0.892260944 C0.200586376,1.07103097 0.00212786481,1.39061227 -5.8467199e-05,1.73606857 L-5.8467199e-05,11.51802 C-5.8467199e-05,11.8745588 0.214941785,12.2055001 0.560941473,12.3810264 C0.901940901,12.5528964 1.33594079,12.5455826 1.67094046,12.3618281 C2.38994014,11.9632368 3.20993223,11.761198 4.10794179,11.761198 C5.20794025,11.761198 6.38593839,12.0775118 7.4259433,12.6525444 L7.42594318,12.6525443 C7.77839384,12.8491506 8.22149183,12.8491519 8.5739425,12.6525445 C9.61394194,12.0775119 10.7919415,11.7611981 11.891944,11.7611981 C12.7889431,11.7611981 13.6099443,11.9623219 14.3299435,12.3618282 C14.6629428,12.5446682 15.0969427,12.5538107 15.4399425,12.3801122 C15.7849426,12.2064134 15.9999415,11.8754734 15.9999415,11.5171058 L15.9999415,1.73697939 C15.9999415,1.39506809 15.7989412,1.07144054 15.4759424,0.893171765 L15.4759176,0.892261307 Z" id="路径"></path>
                </g>
            </g>
        </g>
    </g>
</svg>